# xmcd
#
# Track frame offsets:
#	225
#	12899
#	23924
#	39290
#	52853
#	73609
#	89116
#	99777
#	109739
#	122194
#	132984
#	146071
#	154027
#	169478
#
# Disc length: 2380 seconds
#
# Revision: 2
# Processed by: cddbd v1.5.1PL2 Copyright (c) Steve Scherf et al.
# Submitted via: audiograbber 1.83.01
#
DISCID=bb09490e
DTITLE=Various Artist - Live at Gilley's - Volume 1
DYEAR=1900
DGENRE=Country
TTITLE0=Johnny Lee - Lookin' For Love
TTITLE1=The Bellamay Brothers - Let Your Love Flow
TTITLE2=Carl Perkins - Honey Don't
TTITLE3=Rosanne Cash - Tennessee Flat Top Box
TTITLE4=Ed Bruce - Mammas Don't Let Your Babies Grow Up To Be Cowboys
TTITLE5=Bobby Bare - Detroit City
TTITLE6=Johnny Paycheck - Take This Job And Shove It
TTITLE7=Loretta Lynn - Out Of My Head And Back In My Bed
TTITLE8=Dave and Sugar - Golden Tears
TTITLE9=Fats Domino - Blueberry Hill
TTITLE10=Mickey Gilley - Room Full Of Roses
TTITLE11=Willie Nelson - Crazy
TTITLE12=Ed Bruce - Girls, Women And Ladies
TTITLE13=Loretta Lynn - She's Got You
EXTD=
EXTT0=
EXTT1=
EXTT2=
EXTT3=
EXTT4=
EXTT5=
EXTT6=
EXTT7=
EXTT8=
EXTT9=
EXTT10=
EXTT11=
EXTT12=
EXTT13=
PLAYORDER=
